# xmcd
#
# Track frame offsets:
#	150
#	16476
#	32638
#	45848
#	54773
#	66993
#	78023
#	90568
#
# Disc length: 1421 seconds
#
# Revision: 0
# Processed by: cddbd v1.4PL0 Copyright (c) Steve Scherf et al.
# Submitted via: EasyCDDAExtractor 4.6.9.1
#
DISCID=4f058b08
DTITLE=Shirley Bassey - A Tribute To Shirley Bassey
DYEAR=1900
DGENRE=R&B/Soul
TTITLE0=If You Go Away
TTITLE1=Never, Never, Never
TTITLE2=Goldfinger
TTITLE3=Big Spender
TTITLE4=Diamonds Are Forever
TTITLE5=Moonmaker
TTITLE6=For All We Know
TTITLE7=Rhythm Divine
EXTD=
EXTT0=
EXTT1=
EXTT2=
EXTT3=
EXTT4=
EXTT5=
EXTT6=
EXTT7=
PLAYORDER=
